<svg width="270" height="87" viewBox="0 0 270 87" fill="none" xmlns="http://www.w3.org/2000/svg">
<path d="M66.307 47.97C66.307 48.378 66.273 48.752 66.205 49.092C64.845 58.068 64.573 67.112 65.389 76.224C65.525 77.448 65.695 78.774 65.899 80.202C66.103 81.698 65.933 82.99 65.389 84.078C64.641 85.234 63.587 85.88 62.227 86.016C60.935 86.152 59.813 85.778 58.861 84.894C57.365 83.194 56.583 81.154 56.515 78.774C55.699 72.926 55.495 67.044 55.903 61.128C56.311 55.144 56.923 49.228 57.739 43.38C47.471 46.712 37.645 51.098 28.261 56.538C28.941 62.046 29.689 67.554 30.505 73.062C30.913 75.102 30.675 76.972 29.791 78.672C28.431 80.236 26.799 80.61 24.895 79.794C23.875 79.182 23.161 78.298 22.753 77.142C22.345 76.054 22.073 74.898 21.937 73.674C18.945 53.614 15.239 33.724 10.819 14.004C8.71098 14.684 6.56898 14.854 4.39298 14.514C1.87698 13.698 0.686984 12.1 0.822984 9.72C1.02698 8.49599 1.70698 7.57799 2.86298 6.96599C4.01898 6.35399 5.24298 5.912 6.53498 5.64C13.471 4.076 20.407 2.886 27.343 2.07C33.395 1.118 39.379 1.186 45.295 2.27399C47.199 2.682 48.967 3.396 50.599 4.416C52.299 5.436 53.523 6.864 54.271 8.7C55.019 11.76 54.679 14.786 53.251 17.778C49.239 26.21 44.241 34.03 38.257 41.238C43.153 39.402 48.049 37.566 52.945 35.73C54.509 35.05 56.141 34.574 57.841 34.302C59.609 34.03 61.275 34.268 62.839 35.016C65.151 36.444 66.443 38.552 66.715 41.34C66.919 43.584 66.783 45.794 66.307 47.97ZM31.015 36.036C36.319 28.828 39.787 23.898 41.419 21.246C43.799 17.098 45.227 14.174 45.703 12.474L45.805 11.658L44.377 11.25C43.425 10.978 42.405 10.774 41.317 10.638C38.325 10.298 35.129 10.298 31.729 10.638C26.833 11.182 22.753 11.76 19.489 12.372C19.421 12.372 19.489 12.848 19.693 13.8C19.897 14.684 20.135 15.806 20.407 17.166C21.155 20.702 22.175 25.7 23.467 32.16C24.487 37.6 25.099 40.864 25.303 41.952C25.575 42.972 25.779 43.278 25.915 42.87C25.915 42.802 26.391 42.122 27.343 40.83C28.363 39.538 29.587 37.94 31.015 36.036ZM96.3906 65.412C97.4786 68.132 98.0226 69.9 98.0226 70.716C98.0226 72.212 97.4446 73.368 96.2886 74.184C95.2006 74.932 93.9426 75.068 92.5146 74.592C91.1546 74.116 89.8626 72.484 88.6386 69.696C88.0266 68.132 87.4486 66.67 86.9046 65.31L86.1906 63.372L84.3546 63.474C80.4106 63.746 77.3846 64.052 75.2766 64.392C75.0046 64.392 74.8006 64.528 74.6646 64.8C74.5286 65.004 74.2906 65.582 73.9506 66.534C73.6106 67.622 73.2026 68.812 72.7266 70.104C72.2506 71.328 71.5366 72.314 70.5846 73.062C68.4766 74.218 66.6406 73.81 65.0766 71.838C64.1926 70.682 64.2946 68.846 65.3826 66.33L66.1986 64.188L65.6886 63.168C64.8726 61.196 65.2466 59.53 66.8106 58.17C67.3546 57.83 67.6946 57.524 67.8306 57.252C68.5786 53.58 69.3946 48.582 70.2786 42.258C70.7546 39.266 70.9926 34.608 70.9926 28.284C71.0606 24.204 71.1286 21.654 71.1966 20.634C71.2646 19.546 71.4006 18.9 71.6046 18.696C72.5566 16.928 73.9506 16.044 75.7866 16.044C77.6226 16.044 79.1186 17.098 80.2746 19.206C80.4106 19.41 80.6826 20.158 81.0906 21.45C81.5666 22.742 82.1446 24.374 82.8246 26.346C83.5046 28.318 84.2186 30.426 84.9666 32.67C89.7266 47.154 93.5346 58.068 96.3906 65.412ZM82.8246 55.212C82.9606 55.212 82.9946 55.076 82.9266 54.804C82.8586 54.532 82.6546 53.886 82.3146 52.866C81.7026 51.166 80.9886 49.126 80.1726 46.746C79.5606 45.114 79.1526 44.128 78.9486 43.788C78.8126 43.38 78.7446 43.346 78.7446 43.686C77.8606 48.718 77.1466 52.662 76.6026 55.518C76.3306 55.722 76.3986 55.824 76.8066 55.824C77.2146 55.824 78.2006 55.722 79.7646 55.518C81.6006 55.314 82.6206 55.212 82.8246 55.212ZM111.422 75.408C108.77 74.864 105.812 73.81 102.548 72.246C99.4201 70.75 96.9381 69.186 95.1021 67.554C92.7901 65.786 91.6341 64.052 91.6341 62.352C91.6341 60.312 92.7221 58.986 94.8981 58.374C96.1901 58.102 97.4481 58.578 98.6721 59.802C100.576 61.57 103.84 63.44 108.464 65.412C113.836 67.588 117.78 67.724 120.296 65.82C120.84 65.412 121.112 64.8 121.112 63.984C121.112 60.72 119.31 57.286 115.706 53.682C114.278 52.254 111.014 50.078 105.914 47.154C99.5901 43.618 95.6801 40.796 94.1841 38.688C91.3961 35.152 90.3081 31.582 90.9201 27.978C91.4641 24.306 93.6741 21.11 97.5501 18.39C100.338 16.554 103.67 15.636 107.546 15.636C112.238 15.636 115.842 16.996 118.358 19.716C120.194 21.552 121.554 23.83 122.438 26.55C123.322 29.202 123.458 31.106 122.846 32.262C122.166 33.554 121.146 34.302 119.786 34.506C118.426 34.642 117.27 34.2 116.318 33.18C115.502 31.82 115.094 30.732 115.094 29.916C115.094 29.372 114.448 28.148 113.156 26.244C112.204 24.816 110.708 24.102 108.668 24.102C106.492 23.966 104.622 24.272 103.058 25.02C98.7061 27.4 98.1621 30.324 101.426 33.792C102.446 35.016 105.506 37.056 110.606 39.912C116.658 43.312 120.704 46.134 122.744 48.378C126.212 51.846 128.456 55.552 129.476 59.496C130.768 64.596 129.85 68.71 126.722 71.838C122.778 75.578 117.678 76.768 111.422 75.408ZM157.563 79.896C156.815 79.488 156.271 79.046 155.931 78.57C154.707 76.258 153.517 70.444 152.361 61.128C152.021 58.068 151.851 56.504 151.851 56.436C151.851 56.3 151.579 56.232 151.035 56.232C150.559 56.232 149.743 56.266 148.587 56.334C147.499 56.402 146.071 56.538 144.303 56.742C140.835 57.014 138.999 57.15 138.795 57.15C138.659 57.15 138.625 57.456 138.693 58.068C138.829 58.68 139.101 60.04 139.509 62.148C140.121 65.072 140.427 67.112 140.427 68.268C140.495 69.356 140.257 70.172 139.713 70.716C138.625 71.804 137.571 72.348 136.551 72.348C135.531 72.348 134.477 71.804 133.389 70.716C133.049 70.376 132.777 69.764 132.573 68.88C132.369 67.928 131.927 65.82 131.247 62.556L130.125 57.15L129.309 56.436C128.697 55.892 128.289 55.28 128.085 54.6C127.677 53.512 127.779 52.458 128.391 51.438L128.799 50.622L128.391 48.684C128.051 47.324 127.643 45.386 127.167 42.87C126.555 40.286 125.977 37.906 125.433 35.73C124.481 31.922 124.141 29.542 124.413 28.59C124.753 27.026 125.603 25.972 126.963 25.428C129.819 24.544 131.689 25.734 132.573 28.998C132.709 29.882 132.981 31.208 133.389 32.976C133.865 34.948 134.545 37.974 135.429 42.054C135.701 43.278 135.905 44.4 136.041 45.42C136.245 46.372 136.415 47.154 136.551 47.766C136.687 48.31 136.789 48.616 136.857 48.684C136.857 48.752 137.367 48.752 138.387 48.684C139.407 48.548 141.107 48.446 143.487 48.378C145.799 48.174 147.635 48.038 148.995 47.97L150.933 47.868L150.831 47.256C150.219 41.272 149.641 34.064 149.097 25.632C148.689 20.464 149.335 17.574 151.035 16.962C152.463 16.146 153.891 16.146 155.319 16.962C156.679 17.37 157.359 19.444 157.359 23.184C157.495 27.196 158.073 34.098 159.093 43.89L159.399 47.46L160.521 47.562C161.881 47.698 163.003 48.242 163.887 49.194C164.703 50.554 164.771 51.982 164.091 53.478C163.547 54.43 162.629 55.11 161.337 55.518C160.725 55.654 160.419 55.824 160.419 56.028C160.419 56.3 160.521 57.388 160.725 59.292C160.997 61.196 161.269 63.304 161.541 65.616C161.881 67.86 162.187 69.764 162.459 71.328C162.731 72.824 162.935 74.082 163.071 75.102C163.207 76.122 163.241 76.734 163.173 76.938C162.833 78.162 162.221 79.08 161.337 79.692C160.045 80.44 158.787 80.508 157.563 79.896ZM167.713 74.898C165.197 73.13 164.925 71.022 166.897 68.574C167.305 68.098 168.189 67.622 169.549 67.146C170.909 66.602 173.221 65.922 176.485 65.106C180.837 63.95 184.441 63.134 187.297 62.658C190.153 62.114 192.193 61.876 193.417 61.944C196.205 62.692 197.293 64.392 196.681 67.044C196.137 68.132 195.423 68.914 194.539 69.39C193.927 69.526 192.295 69.9 189.643 70.512C184.135 71.6 179.069 72.824 174.445 74.184C170.773 75.34 168.529 75.578 167.713 74.898ZM187.807 25.224C190.323 30.528 191.377 35.968 190.969 41.544C189.949 50.248 186.583 55.62 180.871 57.66C178.763 58.204 176.621 58.272 174.445 57.864C168.121 55.688 163.837 49.942 161.593 40.626C160.913 37.158 160.811 33.656 161.287 30.12C162.987 20.532 167.339 15.466 174.343 14.922C179.647 14.922 184.135 18.356 187.807 25.224ZM179.443 48.684C181.891 46.236 182.911 42.224 182.503 36.648C181.959 31.82 180.463 28.08 178.015 25.428C175.975 23.252 174.173 22.81 172.609 24.102C170.705 25.598 169.617 28.454 169.345 32.67C169.141 36.818 169.889 40.592 171.589 43.992C173.561 47.732 175.533 49.602 177.505 49.602C178.321 49.602 178.967 49.296 179.443 48.684ZM234.195 75.306C230.795 74.286 227.429 71.566 224.097 67.146C221.241 63.406 218.555 58.136 216.039 51.336C215.699 50.52 215.393 49.874 215.121 49.398C214.917 48.854 214.815 48.65 214.815 48.786C214.679 49.194 214.237 50.656 213.489 53.172C211.789 59.292 210.327 63.576 209.103 66.024C207.879 68.472 206.485 69.866 204.921 70.206C201.725 71.022 199.447 69.39 198.087 65.31C197.407 62.114 196.489 57.014 195.333 50.01C194.925 47.426 194.313 44.06 193.497 39.912C192.069 32.704 191.253 28.318 191.049 26.754C190.845 25.122 190.947 24.102 191.355 23.694C191.763 22.878 192.409 22.266 193.293 21.858C194.245 21.45 195.265 21.416 196.353 21.756C197.441 22.232 198.189 23.048 198.597 24.204C200.093 30.596 201.759 38.858 203.595 48.99C203.867 50.69 204.071 51.88 204.207 52.56C204.343 53.24 204.445 53.546 204.513 53.478C204.649 53.342 204.819 52.968 205.023 52.356C206.111 48.48 207.471 43.176 209.103 36.444C209.851 33.588 210.361 31.752 210.633 30.936C211.381 29.712 212.503 28.998 213.999 28.794C215.563 28.522 216.889 28.828 217.977 29.712C218.725 30.256 219.337 31.854 219.813 34.506C222.669 48.242 226.987 58.102 232.767 64.086C235.827 67.486 237.935 67.758 239.091 64.902C240.655 61.978 241.369 57.184 241.233 50.52C241.029 42.088 239.023 33.01 235.215 23.286C234.127 20.634 233.719 19.07 233.991 18.594C234.195 17.03 234.977 15.942 236.337 15.33C237.357 14.786 238.309 14.684 239.193 15.024C240.689 15.16 242.219 17.37 243.783 21.654C246.231 27.774 247.999 35.05 249.087 43.482C249.699 49.806 249.699 55.654 249.087 61.026C248.611 64.018 247.795 66.636 246.639 68.88C243.647 74.456 239.499 76.598 234.195 75.306ZM262.796 75.51C260.212 74.15 259.396 72.178 260.348 69.594C261.504 67.69 263 66.772 264.836 66.84C266.74 66.908 268.066 67.928 268.814 69.9C269.086 71.328 268.746 72.688 267.794 73.98C266.842 75.204 265.618 75.816 264.122 75.816C263.578 75.748 263.136 75.646 262.796 75.51ZM260.246 62.148C258.682 61.876 257.56 59.904 256.88 56.232C253.208 39.776 250.386 26.482 248.414 16.35C247.802 12.746 247.734 10.672 248.21 10.128C248.89 8.564 249.978 7.714 251.474 7.578C253.038 7.374 254.33 7.918 255.35 9.21C255.554 9.482 255.724 9.924 255.86 10.536C255.996 11.148 256.166 12.134 256.37 13.494C256.71 15.874 257.016 17.846 257.288 19.41C258.716 26.618 261.368 39.13 265.244 56.946C265.72 58.714 265.414 60.074 264.326 61.026C263.17 62.318 261.81 62.692 260.246 62.148Z" fill="#0A84FF"/>
</svg>
