<svg width="86" height="28" viewBox="0 0 86 28" fill="none" xmlns="http://www.w3.org/2000/svg">
<path d="M21.4493 15.52C21.4493 15.648 21.4386 15.7653 21.4173 15.872C20.9906 18.688 20.9053 21.5253 21.1613 24.384C21.2039 24.768 21.2573 25.184 21.3213 25.632C21.3853 26.1013 21.3319 26.5067 21.1613 26.848C20.9266 27.2107 20.5959 27.4133 20.1693 27.456C19.7639 27.4987 19.4119 27.3813 19.1133 27.104C18.6439 26.5707 18.3986 25.9307 18.3773 25.184C18.1213 23.3493 18.0573 21.504 18.1853 19.648C18.3133 17.7707 18.5053 15.9147 18.7613 14.08C15.5399 15.1253 12.4573 16.5013 9.51325 18.208C9.72658 19.936 9.96125 21.664 10.2173 23.392C10.3453 24.032 10.2706 24.6187 9.99325 25.152C9.56658 25.6427 9.05458 25.76 8.45725 25.504C8.13725 25.312 7.91325 25.0347 7.78525 24.672C7.65725 24.3307 7.57192 23.968 7.52925 23.584C6.59058 17.2907 5.42792 11.0507 4.04125 4.864C3.37992 5.07733 2.70792 5.13067 2.02525 5.024C1.23592 4.768 0.862583 4.26667 0.90525 3.52C0.96925 3.136 1.18258 2.848 1.54525 2.656C1.90792 2.464 2.29192 2.32533 2.69725 2.24C4.87325 1.74933 7.04925 1.376 9.22525 1.12C11.1239 0.821332 13.0013 0.842665 14.8573 1.184C15.4546 1.312 16.0093 1.536 16.5213 1.856C17.0546 2.176 17.4386 2.624 17.6733 3.2C17.9079 4.16 17.8013 5.10933 17.3533 6.048C16.0946 8.69333 14.5266 11.1467 12.6493 13.408C14.1853 12.832 15.7213 12.256 17.2573 11.68C17.7479 11.4667 18.2599 11.3173 18.7933 11.232C19.3479 11.1467 19.8706 11.2213 20.3612 11.456C21.0866 11.904 21.4919 12.5653 21.5773 13.44C21.6413 14.144 21.5986 14.8373 21.4493 15.52ZM10.3773 11.776C12.0413 9.51467 13.1293 7.968 13.6413 7.136C14.3879 5.83467 14.8359 4.91733 14.9853 4.384L15.0173 4.128L14.5693 4C14.2706 3.91467 13.9506 3.85067 13.6093 3.808C12.6706 3.70133 11.6679 3.70133 10.6013 3.808C9.06525 3.97867 7.78525 4.16 6.76125 4.352C6.73992 4.352 6.76125 4.50133 6.82525 4.8C6.88925 5.07733 6.96392 5.42933 7.04925 5.856C7.28392 6.96533 7.60392 8.53333 8.00925 10.56C8.32925 12.2667 8.52125 13.2907 8.58525 13.632C8.67058 13.952 8.73458 14.048 8.77725 13.92C8.77725 13.8987 8.92658 13.6853 9.22525 13.28C9.54525 12.8747 9.92925 12.3733 10.3773 11.776ZM30.8873 20.992C31.2286 21.8453 31.3993 22.4 31.3993 22.656C31.3993 23.1253 31.2179 23.488 30.8553 23.744C30.5139 23.9787 30.1193 24.0213 29.6713 23.872C29.2446 23.7227 28.8393 23.2107 28.4553 22.336C28.2633 21.8453 28.0819 21.3867 27.9113 20.96L27.6873 20.352L27.1113 20.384C25.8739 20.4693 24.9246 20.5653 24.2633 20.672C24.1779 20.672 24.1139 20.7147 24.0713 20.8C24.0286 20.864 23.9539 21.0453 23.8473 21.344C23.7406 21.6853 23.6126 22.0587 23.4633 22.464C23.3139 22.848 23.0899 23.1573 22.7913 23.392C22.1299 23.7547 21.5539 23.6267 21.0633 23.008C20.7859 22.6453 20.8179 22.0693 21.1593 21.28L21.4153 20.608L21.2553 20.288C20.9992 19.6693 21.1166 19.1467 21.6073 18.72C21.7779 18.6133 21.8846 18.5173 21.9273 18.432C22.1619 17.28 22.4179 15.712 22.6953 13.728C22.8446 12.7893 22.9193 11.328 22.9193 9.344C22.9406 8.064 22.9619 7.264 22.9833 6.944C23.0046 6.60267 23.0473 6.4 23.1113 6.336C23.4099 5.78133 23.8473 5.504 24.4233 5.504C24.9993 5.504 25.4686 5.83467 25.8313 6.496C25.8739 6.56 25.9593 6.79467 26.0873 7.2C26.2366 7.60533 26.4179 8.11733 26.6313 8.736C26.8446 9.35467 27.0686 10.016 27.3033 10.72C28.7966 15.264 29.9913 18.688 30.8873 20.992ZM26.6313 17.792C26.6739 17.792 26.6846 17.7493 26.6633 17.664C26.6419 17.5787 26.5779 17.376 26.4713 17.056C26.2793 16.5227 26.0553 15.8827 25.7993 15.136C25.6073 14.624 25.4793 14.3147 25.4153 14.208C25.3726 14.08 25.3513 14.0693 25.3513 14.176C25.0739 15.7547 24.8499 16.992 24.6793 17.888C24.5939 17.952 24.6153 17.984 24.7433 17.984C24.8713 17.984 25.1806 17.952 25.6713 17.888C26.2473 17.824 26.5673 17.792 26.6313 17.792ZM35.603 24.128C34.771 23.9573 33.843 23.6267 32.819 23.136C31.8377 22.6667 31.059 22.176 30.483 21.664C29.7577 21.1093 29.395 20.5653 29.395 20.032C29.395 19.392 29.7363 18.976 30.419 18.784C30.8243 18.6987 31.219 18.848 31.603 19.232C32.2003 19.7867 33.2243 20.3733 34.675 20.992C36.3603 21.6747 37.5977 21.7173 38.387 21.12C38.5577 20.992 38.643 20.8 38.643 20.544C38.643 19.52 38.0777 18.4427 36.947 17.312C36.499 16.864 35.475 16.1813 33.875 15.264C31.891 14.1547 30.6643 13.2693 30.195 12.608C29.3203 11.4987 28.979 10.3787 29.171 9.248C29.3417 8.096 30.035 7.09333 31.251 6.24C32.1257 5.664 33.171 5.376 34.387 5.376C35.859 5.376 36.9897 5.80267 37.779 6.656C38.355 7.232 38.7817 7.94667 39.059 8.8C39.3363 9.632 39.379 10.2293 39.187 10.592C38.9737 10.9973 38.6537 11.232 38.227 11.296C37.8003 11.3387 37.4377 11.2 37.139 10.88C36.883 10.4533 36.755 10.112 36.755 9.856C36.755 9.68533 36.5523 9.30133 36.147 8.704C35.8483 8.256 35.379 8.032 34.739 8.032C34.0563 7.98933 33.4697 8.08533 32.979 8.32C31.6137 9.06667 31.443 9.984 32.467 11.072C32.787 11.456 33.747 12.096 35.347 12.992C37.2457 14.0587 38.515 14.944 39.155 15.648C40.243 16.736 40.947 17.8987 41.267 19.136C41.6723 20.736 41.3843 22.0267 40.403 23.008C39.1657 24.1813 37.5657 24.5547 35.603 24.128ZM50.0785 25.536C49.8438 25.408 49.6732 25.2693 49.5665 25.12C49.1825 24.3947 48.8092 22.5707 48.4465 19.648C48.3398 18.688 48.2865 18.1973 48.2865 18.176C48.2865 18.1333 48.2012 18.112 48.0305 18.112C47.8812 18.112 47.6252 18.1227 47.2625 18.144C46.9212 18.1653 46.4732 18.208 45.9185 18.272C44.8305 18.3573 44.2545 18.4 44.1905 18.4C44.1478 18.4 44.1372 18.496 44.1585 18.688C44.2012 18.88 44.2865 19.3067 44.4145 19.968C44.6065 20.8853 44.7025 21.5253 44.7025 21.888C44.7238 22.2293 44.6492 22.4853 44.4785 22.656C44.1372 22.9973 43.8065 23.168 43.4865 23.168C43.1665 23.168 42.8358 22.9973 42.4945 22.656C42.3878 22.5493 42.3025 22.3573 42.2385 22.08C42.1745 21.7813 42.0358 21.12 41.8225 20.096L41.4705 18.4L41.2145 18.176C41.0225 18.0053 40.8945 17.8133 40.8305 17.6C40.7025 17.2587 40.7345 16.928 40.9265 16.608L41.0545 16.352L40.9265 15.744C40.8198 15.3173 40.6918 14.7093 40.5425 13.92C40.3505 13.1093 40.1692 12.3627 39.9985 11.68C39.6998 10.4853 39.5932 9.73867 39.6785 9.44C39.7852 8.94933 40.0518 8.61867 40.4785 8.448C41.3745 8.17067 41.9612 8.544 42.2385 9.568C42.2812 9.84533 42.3665 10.2613 42.4945 10.816C42.6438 11.4347 42.8572 12.384 43.1345 13.664C43.2198 14.048 43.2838 14.4 43.3265 14.72C43.3905 15.0187 43.4438 15.264 43.4865 15.456C43.5292 15.6267 43.5612 15.7227 43.5825 15.744C43.5825 15.7653 43.7425 15.7653 44.0625 15.744C44.3825 15.7013 44.9158 15.6693 45.6625 15.648C46.3878 15.584 46.9638 15.5413 47.3905 15.52L47.9985 15.488L47.9665 15.296C47.7745 13.4187 47.5932 11.1573 47.4225 8.512C47.2945 6.89067 47.4972 5.984 48.0305 5.792C48.4785 5.536 48.9265 5.536 49.3745 5.792C49.8012 5.92 50.0145 6.57067 50.0145 7.744C50.0572 9.00267 50.2385 11.168 50.5585 14.24L50.6545 15.36L51.0065 15.392C51.4332 15.4347 51.7852 15.6053 52.0625 15.904C52.3185 16.3307 52.3398 16.7787 52.1265 17.248C51.9558 17.5467 51.6678 17.76 51.2625 17.888C51.0705 17.9307 50.9745 17.984 50.9745 18.048C50.9745 18.1333 51.0065 18.4747 51.0705 19.072C51.1558 19.6693 51.2412 20.3307 51.3265 21.056C51.4332 21.76 51.5292 22.3573 51.6145 22.848C51.6998 23.3173 51.7638 23.712 51.8065 24.032C51.8492 24.352 51.8598 24.544 51.8385 24.608C51.7318 24.992 51.5398 25.28 51.2625 25.472C50.8572 25.7067 50.4625 25.728 50.0785 25.536ZM53.263 23.968C52.4737 23.4133 52.3883 22.752 53.007 21.984C53.135 21.8347 53.4123 21.6853 53.839 21.536C54.2657 21.3653 54.991 21.152 56.015 20.896C57.3803 20.5333 58.511 20.2773 59.407 20.128C60.303 19.9573 60.943 19.8827 61.327 19.904C62.2017 20.1387 62.543 20.672 62.351 21.504C62.1803 21.8453 61.9563 22.0907 61.679 22.24C61.487 22.2827 60.975 22.4 60.143 22.592C58.415 22.9333 56.8257 23.3173 55.375 23.744C54.223 24.1067 53.519 24.1813 53.263 23.968ZM59.567 8.384C60.3563 10.048 60.687 11.7547 60.559 13.504C60.239 16.2347 59.183 17.92 57.391 18.56C56.7297 18.7307 56.0577 18.752 55.375 18.624C53.391 17.9413 52.047 16.1387 51.343 13.216C51.1297 12.128 51.0977 11.0293 51.247 9.92C51.7803 6.912 53.1457 5.32267 55.343 5.152C57.007 5.152 58.415 6.22933 59.567 8.384ZM56.943 15.744C57.711 14.976 58.031 13.7173 57.903 11.968C57.7323 10.4533 57.263 9.28 56.495 8.448C55.855 7.76533 55.2897 7.62667 54.799 8.032C54.2017 8.50133 53.8603 9.39733 53.775 10.72C53.711 12.0213 53.9457 13.2053 54.479 14.272C55.0977 15.4453 55.7163 16.032 56.335 16.032C56.591 16.032 56.7937 15.936 56.943 15.744ZM74.12 24.096C73.0533 23.776 71.9973 22.9227 70.952 21.536C70.056 20.3627 69.2133 18.7093 68.424 16.576C68.3173 16.32 68.2213 16.1173 68.136 15.968C68.072 15.7973 68.04 15.7333 68.04 15.776C67.9973 15.904 67.8587 16.3627 67.624 17.152C67.0907 19.072 66.632 20.416 66.248 21.184C65.864 21.952 65.4267 22.3893 64.936 22.496C63.9333 22.752 63.2187 22.24 62.792 20.96C62.5787 19.9573 62.2907 18.3573 61.928 16.16C61.8 15.3493 61.608 14.2933 61.352 12.992C60.904 10.7307 60.648 9.35467 60.584 8.864C60.52 8.352 60.552 8.032 60.68 7.904C60.808 7.648 61.0107 7.456 61.288 7.328C61.5867 7.2 61.9067 7.18933 62.248 7.296C62.5893 7.44533 62.824 7.70133 62.952 8.064C63.4213 10.0693 63.944 12.6613 64.52 15.84C64.6053 16.3733 64.6693 16.7467 64.712 16.96C64.7547 17.1733 64.7867 17.2693 64.808 17.248C64.8507 17.2053 64.904 17.088 64.968 16.896C65.3093 15.68 65.736 14.016 66.248 11.904C66.4827 11.008 66.6427 10.432 66.728 10.176C66.9627 9.792 67.3147 9.568 67.784 9.504C68.2747 9.41867 68.6907 9.51467 69.032 9.792C69.2667 9.96267 69.4587 10.464 69.608 11.296C70.504 15.6053 71.8587 18.6987 73.672 20.576C74.632 21.6427 75.2933 21.728 75.656 20.832C76.1467 19.9147 76.3707 18.4107 76.328 16.32C76.264 13.6747 75.6347 10.8267 74.44 7.776C74.0987 6.944 73.9707 6.45333 74.056 6.304C74.12 5.81333 74.3653 5.472 74.792 5.28C75.112 5.10933 75.4107 5.07733 75.688 5.184C76.1573 5.22667 76.6373 5.92 77.128 7.264C77.896 9.184 78.4507 11.4667 78.792 14.112C78.984 16.096 78.984 17.9307 78.792 19.616C78.6427 20.5547 78.3867 21.376 78.024 22.08C77.0853 23.8293 75.784 24.5013 74.12 24.096ZM83.093 24.16C82.2823 23.7333 82.0263 23.1147 82.325 22.304C82.6877 21.7067 83.157 21.4187 83.733 21.44C84.3303 21.4613 84.7463 21.7813 84.981 22.4C85.0663 22.848 84.9597 23.2747 84.661 23.68C84.3623 24.064 83.9783 24.256 83.509 24.256C83.3383 24.2347 83.1997 24.2027 83.093 24.16ZM82.293 19.968C81.8023 19.8827 81.4503 19.264 81.237 18.112C80.085 12.9493 79.1997 8.77867 78.581 5.6C78.389 4.46933 78.3677 3.81867 78.517 3.648C78.7303 3.15733 79.0717 2.89067 79.541 2.848C80.0317 2.784 80.437 2.95467 80.757 3.36C80.821 3.44533 80.8743 3.584 80.917 3.776C80.9597 3.968 81.013 4.27733 81.077 4.704C81.1837 5.45067 81.2797 6.06933 81.365 6.56C81.813 8.82133 82.645 12.7467 83.861 18.336C84.0103 18.8907 83.9143 19.3173 83.573 19.616C83.2103 20.0213 82.7837 20.1387 82.293 19.968Z" fill="#F2F2F7"/>
</svg>
